<svg width="253" height="160" viewBox="0 0 253 160" fill="none" xmlns="http://www.w3.org/2000/svg">
    <path d="M244.92 52.9816C244.92 52.9816 231.231 62.1256 220.532 61.8236C207.121 61.4356 204.824 53.4676 192.396 52.9816C179.389 53.0776 178.061 61.3436 163.962 61.8236C151.33 61.7116 145.975 53.1316 133.937 52.9816C121.899 52.8316 109.059 61.8236 109.059 61.8236" stroke="#ABABAB" stroke-width="16" stroke-linecap="round"/>
    <path d="M204.919 8.00271C204.919 8.00271 189.147 21.2387 176.819 20.8027C161.367 20.2407 158.719 8.70271 144.402 8.00271C129.415 8.14171 127.886 20.1027 111.641 20.8027C97.0868 20.6417 90.9208 8.22071 77.0468 8.00271C63.1728 7.78471 48.3838 20.8027 48.3838 20.8027" stroke="#ABABAB" stroke-width="16" stroke-linecap="round"/>
    <path d="M153.919 94.0027C153.919 94.0027 139.219 107.239 127.726 106.803C113.326 106.241 110.855 94.7027 97.508 94.0027C83.538 94.1417 82.108 106.103 66.969 106.803C53.403 106.64 47.655 94.2197 34.719 94.0027C21.783 93.7857 8 106.803 8 106.803" stroke="#ABABAB" stroke-width="16" stroke-linecap="round"/>
    <path d="M237.92 139.003C237.92 139.003 222.726 152.239 210.852 151.802C195.966 151.24 193.417 139.702 179.624 139.002C165.187 139.141 163.713 151.102 148.064 151.802C134.042 151.64 128.103 139.22 114.742 139.003C101.381 138.786 87.1299 151.803 87.1299 151.803" stroke="#ABABAB" stroke-width="16" stroke-linecap="round"/>
</svg>