<svg width="250" height="249" viewBox="0 0 250 249" fill="none" xmlns="http://www.w3.org/2000/svg">
    <path d="M119.783 6.63721C127.912 6.63551 136.02 7.45703 143.983 9.0892C159.355 12.2557 173.95 18.4286 186.929 27.2532C204.911 39.4408 219.277 56.2472 228.519 75.9059C237.761 95.5646 241.536 117.35 239.449 138.972C237.361 160.594 229.488 181.255 216.657 198.783C203.825 216.311 186.509 230.058 166.528 238.581C159.265 241.667 151.713 244.024 143.983 245.615C127.222 249.014 109.928 248.802 93.2552 244.994C76.5821 241.185 60.912 233.868 47.2886 223.528C33.6652 213.189 22.4013 200.066 14.2473 185.032C6.09328 169.998 1.23633 153.4 -3.05176e-05 136.342C13.1432 139.417 26.7957 139.613 40.022 136.918C51.8913 134.487 63.1657 129.743 73.202 122.956C88.1206 112.885 99.7986 98.7044 106.821 82.1312C109.194 76.5179 111.005 70.6834 112.228 64.7132C114.834 51.9222 114.737 38.7278 111.945 25.9762C110.54 19.5993 108.461 13.3895 105.745 7.4512C110.405 6.90865 115.092 6.63686 119.783 6.63721Z" fill="#713FFD"/>
    <g filter="url(#filter0_f_7_10856)">
        <path d="M201.052 43.9553C174.091 19.6795 138.772 14.9524 122.164 33.397C105.557 51.8416 113.95 86.4734 140.911 110.749C167.872 135.025 203.191 139.752 219.799 121.307C236.406 102.863 228.013 68.2311 201.052 43.9553Z" fill="#A586FC"/>
    </g>
    <defs>
        <filter id="filter0_f_7_10856" x="93.6379" y="2.14575" width="154.687" height="150.413" filterUnits="userSpaceOnUse" color-interpolation-filters="sRGB">
            <feFlood flood-opacity="0" result="BackgroundImageFix"/>
            <feBlend mode="normal" in="SourceGraphic" in2="BackgroundImageFix" result="shape"/>
            <feGaussianBlur stdDeviation="10" result="effect1_foregroundBlur_7_10856"/>
        </filter>
    </defs>
</svg>