<svg width="441" height="380" viewBox="0 0 441 380" fill="none" xmlns="http://www.w3.org/2000/svg">
    <path d="M206.333 208.001H274.405L235.272 265.467L281.027 266.333L184.99 380.001L208.26 293.338H165.66L206.333 208.001Z" fill="url(#paint0_linear_7_11707)"/>
    <path d="M311.518 268.484H341.405L324.224 293.715L344.313 294.095L302.147 344.001L312.364 305.952H293.664L311.518 268.484Z" fill="url(#paint1_linear_7_11707)"/>
    <path d="M104.518 294.001H134.405L117.224 319.232L137.313 319.612L95.147 369.518L105.364 331.469H86.664L104.518 294.001Z" fill="url(#paint2_linear_7_11707)"/>
    <path d="M103.268 6.72311C110.278 6.72136 117.27 7.42963 124.137 8.83711C137.39 11.5668 149.974 16.8888 161.164 24.4971C176.667 35.0048 189.053 49.4945 197.021 66.4436C204.989 83.3926 208.244 102.175 206.444 120.817C204.645 139.458 197.856 157.271 186.793 172.383C175.73 187.495 160.801 199.347 143.574 206.695C137.312 209.356 130.8 211.388 124.136 212.76C109.685 215.69 94.7755 215.508 80.4006 212.224C66.0257 208.941 52.5155 202.632 40.77 193.718C29.0245 184.804 19.3133 173.489 12.2833 160.528C5.25325 147.566 1.06584 133.256 -1.52588e-05 118.549C11.3315 121.201 23.1024 121.372 34.506 119.049C44.739 116.953 54.4592 112.863 63.112 107.012C75.9743 98.3288 86.0423 86.1017 92.096 71.8121C94.1415 66.9726 95.7028 61.9424 96.757 56.7951C99.0041 45.7664 98.921 34.3898 96.513 23.3951C95.3017 17.8974 93.5103 12.5437 91.169 7.42412C95.1851 6.95677 99.2248 6.7227 103.268 6.72311Z" fill="#713FFD"/>
    <g filter="url(#filter0_f_7_11707)">
        <path d="M173.339 38.8964C150.095 17.9669 119.644 13.8916 105.325 29.7941C91.0065 45.6965 98.2424 75.5547 121.487 96.4842C144.732 117.414 175.183 121.489 189.501 105.586C203.82 89.6841 196.584 59.8259 173.339 38.8964Z" fill="#A586FC"/>
    </g>
    <g filter="url(#filter1_d_7_11707)">
        <path d="M310.345 282.002H118.913C100.343 281.988 82.4975 274.791 69.1136 261.917C55.7297 249.044 47.8447 231.492 47.1092 212.936C46.3736 194.38 52.8447 176.259 65.1676 162.366C77.4906 148.473 94.7099 139.886 113.221 138.402C115.861 119.762 124.278 102.419 137.289 88.8123C150.299 75.2056 167.248 66.0204 185.752 62.5488C204.255 59.0772 223.381 61.4939 240.439 69.4591C257.497 77.4243 271.628 90.537 280.845 106.952C297.75 101.1 316.015 100.417 333.311 104.988C350.606 109.56 366.148 119.18 377.953 132.621C389.758 146.062 397.293 162.715 399.594 180.456C401.896 198.196 398.861 216.221 390.877 232.229C386.191 246.693 377.044 259.3 364.749 268.242C352.453 277.184 337.641 282.002 322.437 282.002H310.345Z" fill="url(#paint3_linear_7_11707)"/>
        <path d="M322.437 281.002C330.156 281.002 337.746 279.769 344.996 277.338C352.006 274.988 358.587 271.557 364.557 267.142C370.458 262.778 375.631 257.551 379.932 251.605C384.287 245.585 387.649 238.962 389.925 231.922L389.949 231.849L389.983 231.782C393.01 225.734 395.341 219.336 396.911 212.766C398.526 206.005 399.345 199.019 399.345 192.002C399.345 185.963 398.737 179.928 397.537 174.064C396.368 168.351 394.623 162.73 392.352 157.36C390.121 152.086 387.36 147 384.146 142.242C380.962 137.529 377.305 133.097 373.278 129.07C369.25 125.042 364.818 121.385 360.105 118.201C355.347 114.987 350.261 112.226 344.988 109.996C339.617 107.724 333.997 105.979 328.283 104.81C322.42 103.61 316.384 103.002 310.345 103.002C300.346 103.002 290.531 104.648 281.172 107.893L280.383 108.167L279.973 107.439C272.357 93.8967 261.279 82.5241 247.937 74.5503C241.189 70.5177 233.94 67.4014 226.391 65.2881C218.602 63.1079 210.512 62.0024 202.345 62.0024C191.361 62.0024 180.638 63.9794 170.475 67.8785C160.657 71.6451 151.65 77.0862 143.705 84.0504C135.806 90.9747 129.251 99.1446 124.221 108.333C119.069 117.748 115.701 127.91 114.211 138.537L114.1 139.333L113.299 139.396C104.341 140.097 95.7219 142.455 87.6818 146.406C79.8694 150.244 72.8932 155.436 66.947 161.837C54.7289 174.989 48 192.126 48 210.089C48 219.663 49.8748 228.949 53.5723 237.691C55.3495 241.893 57.5491 245.946 60.1102 249.736C62.6472 253.492 65.5607 257.023 68.7699 260.232C71.9791 263.441 75.5104 266.355 79.2655 268.892C83.0565 271.453 87.109 273.653 91.3106 275.43C100.052 279.127 109.339 281.002 118.913 281.002H310.345H322.437ZM322.437 282.002H310.345H118.913C79.1966 282.002 47 249.805 47 210.089C47 172.288 76.1646 141.299 113.221 138.399C119.35 94.6598 156.917 61.0024 202.345 61.0024C236.048 61.0024 265.422 79.5256 280.845 106.948C290.087 103.743 300.012 102.002 310.345 102.002C360.051 102.002 400.345 142.297 400.345 192.002C400.345 206.461 396.936 220.123 390.877 232.229C381.54 261.111 354.427 282.002 322.437 282.002Z" fill="white" fill-opacity="0.5"/>
    </g>
    <defs>
        <filter id="filter0_f_7_11707" x="77.9738" y="0.0932617" width="138.879" height="135.194" filterUnits="userSpaceOnUse" color-interpolation-filters="sRGB">
            <feFlood flood-opacity="0" result="BackgroundImageFix"/>
            <feBlend mode="normal" in="SourceGraphic" in2="BackgroundImageFix" result="shape"/>
            <feGaussianBlur stdDeviation="10" result="effect1_foregroundBlur_7_11707"/>
        </filter>
        <filter id="filter1_d_7_11707" x="27" y="33.0024" width="413.345" height="281" filterUnits="userSpaceOnUse" color-interpolation-filters="sRGB">
            <feFlood flood-opacity="0" result="BackgroundImageFix"/>
            <feColorMatrix in="SourceAlpha" type="matrix" values="0 0 0 0 0 0 0 0 0 0 0 0 0 0 0 0 0 0 127 0" result="hardAlpha"/>
            <feOffset dx="10" dy="2"/>
            <feGaussianBlur stdDeviation="15"/>
            <feColorMatrix type="matrix" values="0 0 0 0 0.258824 0 0 0 0 0.627451 0 0 0 0 0.941176 0 0 0 0.596 0"/>
            <feBlend mode="normal" in2="BackgroundImageFix" result="effect1_dropShadow_7_11707"/>
            <feBlend mode="normal" in="SourceGraphic" in2="effect1_dropShadow_7_11707" result="shape"/>
        </filter>
        <linearGradient id="paint0_linear_7_11707" x1="212.73" y1="294.001" x2="158.841" y2="274.245" gradientUnits="userSpaceOnUse">
            <stop stop-color="#FFD100"/>
            <stop offset="1" stop-color="#FFF0AA"/>
        </linearGradient>
        <linearGradient id="paint1_linear_7_11707" x1="314.329" y1="306.242" x2="290.67" y2="297.569" gradientUnits="userSpaceOnUse">
            <stop stop-color="#FFD100"/>
            <stop offset="1" stop-color="#FFF0AA"/>
        </linearGradient>
        <linearGradient id="paint2_linear_7_11707" x1="107.329" y1="331.759" x2="83.67" y2="323.087" gradientUnits="userSpaceOnUse">
            <stop stop-color="#FFD100"/>
            <stop offset="1" stop-color="#FFF0AA"/>
        </linearGradient>
        <linearGradient id="paint3_linear_7_11707" x1="223.698" y1="61.0049" x2="326.341" y2="309.169" gradientUnits="userSpaceOnUse">
            <stop stop-color="white" stop-opacity="0.604"/>
            <stop offset="1" stop-color="white" stop-opacity="0.2"/>
        </linearGradient>
    </defs>
</svg>